G04 #@! TF.FileFunction,Legend,Bot*
%FSLAX46Y46*%
G04 Gerber Fmt 4.6, Leading zero omitted, Abs format (unit mm)*
G04 Created by KiCad (PCBNEW 4.0.7-e0-6372~58~ubuntu16.04.1) date Sat Mar  2 19:42:23 2019*
%MOMM*%
%LPD*%
G01*
G04 APERTURE LIST*
%ADD10C,0.100000*%
%ADD11C,0.120000*%
%ADD12C,0.150000*%
%ADD13C,0.203200*%
%ADD14C,0.127000*%
%ADD15C,0.254000*%
%ADD16C,0.177800*%
G04 APERTURE END LIST*
D10*
D11*
X138278173Y-62173929D02*
G75*
G03X133270000Y-58400000I-5008173J-1436071D01*
G01*
X129279383Y-66959947D02*
G75*
G03X138347000Y-64781000I3990617J3349947D01*
G01*
X133360657Y-58400743D02*
G75*
G03X129398000Y-60124000I-90657J-5209257D01*
G01*
X134770000Y-63610000D02*
G75*
G03X134770000Y-63610000I-1500000J0D01*
G01*
D10*
X78082528Y-105177228D02*
X83893820Y-105177228D01*
X83893820Y-105177228D02*
X83920151Y-103893795D01*
X83920151Y-103893795D02*
X92751373Y-103900483D01*
X92751373Y-103900483D02*
X92749397Y-105102736D01*
X92749397Y-105102736D02*
X101830193Y-105076658D01*
X101830193Y-105076658D02*
X101816195Y-73906507D01*
X101816195Y-73906507D02*
X101583384Y-73303714D01*
X101583384Y-73303714D02*
X101299901Y-72758833D01*
X101299901Y-72758833D02*
X100965253Y-72272423D01*
X100965253Y-72272423D02*
X100578953Y-71845048D01*
X100578953Y-71845048D02*
X100140512Y-71477259D01*
X100140512Y-71477259D02*
X99649440Y-71169623D01*
X99649440Y-71169623D02*
X99105250Y-70922690D01*
X99105250Y-70922690D02*
X98507453Y-70737024D01*
X98507453Y-70737024D02*
X79469540Y-70708266D01*
X79469540Y-70708266D02*
X78850176Y-70942259D01*
X78850176Y-70942259D02*
X78261982Y-71226742D01*
X78261982Y-71226742D02*
X77718555Y-71576257D01*
X77718555Y-71576257D02*
X77233497Y-72005342D01*
X77233497Y-72005342D02*
X76820405Y-72528540D01*
X76820405Y-72528540D02*
X76492878Y-73160387D01*
X76492878Y-73160387D02*
X76264518Y-73915425D01*
X76264518Y-73915425D02*
X76148922Y-74808193D01*
X76148922Y-74808193D02*
X76123974Y-97363285D01*
X76123974Y-97363285D02*
X78067520Y-98324181D01*
X78067520Y-98324181D02*
X78097314Y-105132524D01*
X92079650Y-98951451D02*
X84940069Y-98951451D01*
X84940069Y-98951451D02*
X84940069Y-104765188D01*
X84940069Y-104765188D02*
X92079650Y-104765188D01*
X92079650Y-104765188D02*
X92079650Y-98951451D01*
X78156400Y-98302349D02*
X79708622Y-98302349D01*
X79708622Y-98302349D02*
X80237789Y-98831515D01*
X80237789Y-98831515D02*
X81490150Y-98831515D01*
X81490150Y-98831515D02*
X81490150Y-103893876D01*
X81490150Y-103893876D02*
X80202511Y-103893876D01*
X80202511Y-103893876D02*
X79673344Y-104387765D01*
X79673344Y-104387765D02*
X78103483Y-104387765D01*
X78103483Y-104387765D02*
X78156400Y-98302349D01*
X78121122Y-100383738D02*
X77468483Y-100383738D01*
X77468483Y-100383738D02*
X77468483Y-102376932D01*
X77468483Y-102376932D02*
X78085844Y-102376932D01*
D11*
X39521827Y-64826071D02*
G75*
G03X44530000Y-68600000I5008173J1436071D01*
G01*
X48520617Y-60040053D02*
G75*
G03X39453000Y-62219000I-3990617J-3349947D01*
G01*
X44439343Y-68599257D02*
G75*
G03X48402000Y-66876000I90657J5209257D01*
G01*
X46030000Y-63390000D02*
G75*
G03X46030000Y-63390000I-1500000J0D01*
G01*
D12*
X56134000Y-72009000D02*
X57150000Y-73025000D01*
X56134000Y-80137000D02*
X57150000Y-79121000D01*
X44450000Y-79375000D02*
X45212000Y-80137000D01*
X44450000Y-72771000D02*
X45212000Y-72009000D01*
D13*
X44450000Y-79375000D02*
X44450000Y-77820520D01*
X45212000Y-72009000D02*
X56134000Y-72009000D01*
X56134000Y-80137000D02*
X45212000Y-80137000D01*
X57150000Y-74295000D02*
X57150000Y-73025000D01*
X44450000Y-74325480D02*
X44450000Y-72771000D01*
X57150000Y-79121000D02*
X57150000Y-77820520D01*
X43276520Y-53299360D02*
X55275480Y-53299360D01*
X43276520Y-42303700D02*
X44777660Y-42303700D01*
X53774340Y-42303700D02*
X55275480Y-42303700D01*
X44777660Y-41302940D02*
X46276260Y-41302940D01*
X52275740Y-41302940D02*
X53774340Y-41302940D01*
X53774340Y-41302940D02*
X53774340Y-42303700D01*
X44777660Y-41302940D02*
X44777660Y-42303700D01*
X46276260Y-39301420D02*
X52275740Y-39301420D01*
X52275740Y-39301420D02*
X52275740Y-41302940D01*
X46276260Y-39301420D02*
X46276260Y-41302940D01*
X43276520Y-42303700D02*
X43276520Y-49298860D01*
X43276520Y-53299360D02*
X43276520Y-52301140D01*
X43276520Y-42303700D02*
X55275480Y-42303700D01*
X55275480Y-42303700D02*
X55275480Y-49298860D01*
X55275480Y-53299360D02*
X55275480Y-52301140D01*
D10*
X49742973Y-45801280D02*
G75*
G03X49742973Y-45801280I-466973J0D01*
G01*
X44645193Y-50800000D02*
G75*
G03X44645193Y-50800000I-466973J0D01*
G01*
X47243613Y-50800000D02*
G75*
G03X47243613Y-50800000I-466973J0D01*
G01*
X52242333Y-50800000D02*
G75*
G03X52242333Y-50800000I-466973J0D01*
G01*
X54840753Y-50800000D02*
G75*
G03X54840753Y-50800000I-466973J0D01*
G01*
X50138105Y-45801280D02*
G75*
G03X50138105Y-45801280I-862105J0D01*
G01*
X45040325Y-50800000D02*
G75*
G03X45040325Y-50800000I-862105J0D01*
G01*
X55235885Y-50800000D02*
G75*
G03X55235885Y-50800000I-862105J0D01*
G01*
X52637465Y-50800000D02*
G75*
G03X52637465Y-50800000I-862105J0D01*
G01*
X47638745Y-50800000D02*
G75*
G03X47638745Y-50800000I-862105J0D01*
G01*
D14*
X44701148Y-45841920D02*
G75*
G03X44701148Y-45841920I-423868J0D01*
G01*
X44277280Y-45242480D02*
X44277280Y-46441360D01*
X44876720Y-45841920D02*
X43677840Y-45841920D01*
X54698588Y-45841920D02*
G75*
G03X54698588Y-45841920I-423868J0D01*
G01*
X54274720Y-45242480D02*
X54274720Y-46441360D01*
X54874160Y-45841920D02*
X53675280Y-45841920D01*
D13*
X122905520Y-53218080D02*
X134904480Y-53218080D01*
X122905520Y-42222420D02*
X124406660Y-42222420D01*
X133403340Y-42222420D02*
X134904480Y-42222420D01*
X124406660Y-41221660D02*
X125905260Y-41221660D01*
X131904740Y-41221660D02*
X133403340Y-41221660D01*
X133403340Y-41221660D02*
X133403340Y-42222420D01*
X124406660Y-41221660D02*
X124406660Y-42222420D01*
X125905260Y-39220140D02*
X131904740Y-39220140D01*
X131904740Y-39220140D02*
X131904740Y-41221660D01*
X125905260Y-39220140D02*
X125905260Y-41221660D01*
X122905520Y-42222420D02*
X122905520Y-49217580D01*
X122905520Y-53218080D02*
X122905520Y-52219860D01*
X122905520Y-42222420D02*
X134904480Y-42222420D01*
X134904480Y-42222420D02*
X134904480Y-49217580D01*
X134904480Y-53218080D02*
X134904480Y-52219860D01*
D10*
X129371973Y-45720000D02*
G75*
G03X129371973Y-45720000I-466973J0D01*
G01*
X124274193Y-50718720D02*
G75*
G03X124274193Y-50718720I-466973J0D01*
G01*
X126872613Y-50718720D02*
G75*
G03X126872613Y-50718720I-466973J0D01*
G01*
X131871333Y-50718720D02*
G75*
G03X131871333Y-50718720I-466973J0D01*
G01*
X134469753Y-50718720D02*
G75*
G03X134469753Y-50718720I-466973J0D01*
G01*
X129767105Y-45720000D02*
G75*
G03X129767105Y-45720000I-862105J0D01*
G01*
X124669325Y-50718720D02*
G75*
G03X124669325Y-50718720I-862105J0D01*
G01*
X134864885Y-50718720D02*
G75*
G03X134864885Y-50718720I-862105J0D01*
G01*
X132266465Y-50718720D02*
G75*
G03X132266465Y-50718720I-862105J0D01*
G01*
X127267745Y-50718720D02*
G75*
G03X127267745Y-50718720I-862105J0D01*
G01*
D14*
X124330148Y-45760640D02*
G75*
G03X124330148Y-45760640I-423868J0D01*
G01*
X123906280Y-45161200D02*
X123906280Y-46360080D01*
X124505720Y-45760640D02*
X123306840Y-45760640D01*
X134327588Y-45760640D02*
G75*
G03X134327588Y-45760640I-423868J0D01*
G01*
X133903720Y-45161200D02*
X133903720Y-46360080D01*
X134503160Y-45760640D02*
X133304280Y-45760640D01*
D15*
X137932160Y-90484960D02*
X127932180Y-90484960D01*
X126230380Y-83886040D02*
X126230380Y-90484960D01*
X126230380Y-83886040D02*
X127431800Y-83886040D01*
X137932160Y-83886040D02*
X138430000Y-83886040D01*
X138430000Y-83886040D02*
X138430000Y-84386420D01*
X138430000Y-84386420D02*
X138430000Y-89984580D01*
X138430000Y-89984580D02*
X138430000Y-90484960D01*
X138430000Y-90484960D02*
X137932160Y-90484960D01*
X138430000Y-84386420D02*
X140428980Y-84386420D01*
X140428980Y-84386420D02*
X140428980Y-89984580D01*
X140428980Y-89984580D02*
X138430000Y-89984580D01*
X131432300Y-83886040D02*
X129032000Y-83886040D01*
X134432040Y-83886040D02*
X133032500Y-83886040D01*
X137932160Y-83886040D02*
X136032240Y-83886040D01*
X137932160Y-79689960D02*
X127932180Y-79689960D01*
X126230380Y-73091040D02*
X126230380Y-79689960D01*
X126230380Y-73091040D02*
X127431800Y-73091040D01*
X137932160Y-73091040D02*
X138430000Y-73091040D01*
X138430000Y-73091040D02*
X138430000Y-73591420D01*
X138430000Y-73591420D02*
X138430000Y-79189580D01*
X138430000Y-79189580D02*
X138430000Y-79689960D01*
X138430000Y-79689960D02*
X137932160Y-79689960D01*
X138430000Y-73591420D02*
X140428980Y-73591420D01*
X140428980Y-73591420D02*
X140428980Y-79189580D01*
X140428980Y-79189580D02*
X138430000Y-79189580D01*
X131432300Y-73091040D02*
X129032000Y-73091040D01*
X134432040Y-73091040D02*
X133032500Y-73091040D01*
X137932160Y-73091040D02*
X136032240Y-73091040D01*
D11*
X75370000Y-76200000D02*
G75*
G03X75370000Y-76200000I-8060000J0D01*
G01*
X59249000Y-86760000D02*
X59249000Y-76200000D01*
X59249000Y-86760000D02*
X60945000Y-86760000D01*
X63675000Y-86760000D02*
X65945000Y-86760000D01*
X68675000Y-86760000D02*
X70945000Y-86760000D01*
X73675000Y-86760000D02*
X75370000Y-86760000D01*
X75370000Y-86760000D02*
X75370000Y-76200000D01*
X118550000Y-76200000D02*
G75*
G03X118550000Y-76200000I-8060000J0D01*
G01*
X102429000Y-86760000D02*
X102429000Y-76200000D01*
X102429000Y-86760000D02*
X104125000Y-86760000D01*
X106855000Y-86760000D02*
X109125000Y-86760000D01*
X111855000Y-86760000D02*
X114125000Y-86760000D01*
X116855000Y-86760000D02*
X118550000Y-86760000D01*
X118550000Y-86760000D02*
X118550000Y-76200000D01*
D12*
X134746191Y-67254381D02*
X134746191Y-66254381D01*
X134365238Y-66254381D01*
X134270000Y-66302000D01*
X134222381Y-66349619D01*
X134174762Y-66444857D01*
X134174762Y-66587714D01*
X134222381Y-66682952D01*
X134270000Y-66730571D01*
X134365238Y-66778190D01*
X134746191Y-66778190D01*
X133603334Y-67254381D02*
X133698572Y-67206762D01*
X133746191Y-67159143D01*
X133793810Y-67063905D01*
X133793810Y-66778190D01*
X133746191Y-66682952D01*
X133698572Y-66635333D01*
X133603334Y-66587714D01*
X133460476Y-66587714D01*
X133365238Y-66635333D01*
X133317619Y-66682952D01*
X133270000Y-66778190D01*
X133270000Y-67063905D01*
X133317619Y-67159143D01*
X133365238Y-67206762D01*
X133460476Y-67254381D01*
X133603334Y-67254381D01*
X132984286Y-66587714D02*
X132603334Y-66587714D01*
X132841429Y-66254381D02*
X132841429Y-67111524D01*
X132793810Y-67206762D01*
X132698572Y-67254381D01*
X132603334Y-67254381D01*
X131841428Y-66587714D02*
X131841428Y-67254381D01*
X132079524Y-66206762D02*
X132317619Y-66921048D01*
X131698571Y-66921048D01*
X88391905Y-107162381D02*
X88391905Y-107971905D01*
X88344286Y-108067143D01*
X88296667Y-108114762D01*
X88201429Y-108162381D01*
X88010952Y-108162381D01*
X87915714Y-108114762D01*
X87868095Y-108067143D01*
X87820476Y-107971905D01*
X87820476Y-107162381D01*
X86820476Y-108162381D02*
X87391905Y-108162381D01*
X87106191Y-108162381D02*
X87106191Y-107162381D01*
X87201429Y-107305238D01*
X87296667Y-107400476D01*
X87391905Y-107448095D01*
X95757143Y-72017143D02*
X95042857Y-75017143D01*
X94471428Y-72874286D01*
X93900000Y-75017143D01*
X93185714Y-72017143D01*
X90900000Y-74874286D02*
X91185714Y-75017143D01*
X91757143Y-75017143D01*
X92042857Y-74874286D01*
X92185714Y-74588571D01*
X92185714Y-73445714D01*
X92042857Y-73160000D01*
X91757143Y-73017143D01*
X91185714Y-73017143D01*
X90900000Y-73160000D01*
X90757143Y-73445714D01*
X90757143Y-73731429D01*
X92185714Y-74017143D01*
X89471428Y-75017143D02*
X89471428Y-72017143D01*
X88471428Y-74160000D01*
X87471428Y-72017143D01*
X87471428Y-75017143D01*
X85614286Y-75017143D02*
X85900000Y-74874286D01*
X86042857Y-74731429D01*
X86185714Y-74445714D01*
X86185714Y-73588571D01*
X86042857Y-73302857D01*
X85900000Y-73160000D01*
X85614286Y-73017143D01*
X85185714Y-73017143D01*
X84900000Y-73160000D01*
X84757143Y-73302857D01*
X84614286Y-73588571D01*
X84614286Y-74445714D01*
X84757143Y-74731429D01*
X84900000Y-74874286D01*
X85185714Y-75017143D01*
X85614286Y-75017143D01*
X83471428Y-74874286D02*
X83185714Y-75017143D01*
X82614286Y-75017143D01*
X82328571Y-74874286D01*
X82185714Y-74588571D01*
X82185714Y-74445714D01*
X82328571Y-74160000D01*
X82614286Y-74017143D01*
X83042857Y-74017143D01*
X83328571Y-73874286D01*
X83471428Y-73588571D01*
X83471428Y-73445714D01*
X83328571Y-73160000D01*
X83042857Y-73017143D01*
X82614286Y-73017143D01*
X82328571Y-73160000D01*
X46006191Y-60650381D02*
X46006191Y-59650381D01*
X45625238Y-59650381D01*
X45530000Y-59698000D01*
X45482381Y-59745619D01*
X45434762Y-59840857D01*
X45434762Y-59983714D01*
X45482381Y-60078952D01*
X45530000Y-60126571D01*
X45625238Y-60174190D01*
X46006191Y-60174190D01*
X44863334Y-60650381D02*
X44958572Y-60602762D01*
X45006191Y-60555143D01*
X45053810Y-60459905D01*
X45053810Y-60174190D01*
X45006191Y-60078952D01*
X44958572Y-60031333D01*
X44863334Y-59983714D01*
X44720476Y-59983714D01*
X44625238Y-60031333D01*
X44577619Y-60078952D01*
X44530000Y-60174190D01*
X44530000Y-60459905D01*
X44577619Y-60555143D01*
X44625238Y-60602762D01*
X44720476Y-60650381D01*
X44863334Y-60650381D01*
X44244286Y-59983714D02*
X43863334Y-59983714D01*
X44101429Y-59650381D02*
X44101429Y-60507524D01*
X44053810Y-60602762D01*
X43958572Y-60650381D01*
X43863334Y-60650381D01*
X43625238Y-59650381D02*
X43006190Y-59650381D01*
X43339524Y-60031333D01*
X43196666Y-60031333D01*
X43101428Y-60078952D01*
X43053809Y-60126571D01*
X43006190Y-60221810D01*
X43006190Y-60459905D01*
X43053809Y-60555143D01*
X43101428Y-60602762D01*
X43196666Y-60650381D01*
X43482381Y-60650381D01*
X43577619Y-60602762D01*
X43625238Y-60555143D01*
D16*
X48577333Y-73429762D02*
X48434476Y-73477381D01*
X48196380Y-73477381D01*
X48101142Y-73429762D01*
X48053523Y-73382143D01*
X48005904Y-73286905D01*
X48005904Y-73191667D01*
X48053523Y-73096429D01*
X48101142Y-73048810D01*
X48196380Y-73001190D01*
X48386857Y-72953571D01*
X48482095Y-72905952D01*
X48529714Y-72858333D01*
X48577333Y-72763095D01*
X48577333Y-72667857D01*
X48529714Y-72572619D01*
X48482095Y-72525000D01*
X48386857Y-72477381D01*
X48148761Y-72477381D01*
X48005904Y-72525000D01*
X47672571Y-72477381D02*
X47434476Y-73477381D01*
X47243999Y-72763095D01*
X47053523Y-73477381D01*
X46815428Y-72477381D01*
X45910666Y-73477381D02*
X46482095Y-73477381D01*
X46196381Y-73477381D02*
X46196381Y-72477381D01*
X46291619Y-72620238D01*
X46386857Y-72715476D01*
X46482095Y-72763095D01*
M02*
