M48
;DRILL file {KiCad 4.0.7-e0-6372~58~ubuntu16.04.1} date Sat Mar  2 19:42:26 2019
;FORMAT={-:-/ absolute / metric / decimal}
FMAT,2
METRIC,TZ
T1C0.400
T2C1.000
T3C1.016
T4C1.200
T5C1.298
T6C7.600
%
G90
G05
M71
T1
X48.006Y-100.076
X62.357Y-86.995
X64.008Y-50.8
X64.262Y-49.53
X67.31Y-49.53
X67.31Y-50.8
X69.85Y-93.472
X70.612Y-49.53
X70.691Y-50.879
X73.914Y-49.53
X73.914Y-50.8
X74.93Y-99.695
X74.93Y-101.6
X76.327Y-101.346
X77.216Y-49.784
X77.216Y-50.8
X77.47Y-74.93
X77.47Y-100.33
X80.518Y-49.53
X80.518Y-50.8
X80.645Y-95.885
X81.534Y-99.504
X82.804Y-94.742
X82.984Y-95.85
X83.82Y-49.784
X83.82Y-50.8
X83.82Y-96.52
X84.455Y-71.247
X84.455Y-77.978
X84.963Y-74.422
X85.852Y-81.534
X86.36Y-68.58
X86.995Y-49.53
X87.122Y-50.546
X87.757Y-74.422
X88.075Y-88.265
X88.9Y-66.04
X88.9Y-67.31
X89.535Y-77.851
X90.424Y-49.53
X90.424Y-50.8
X91.44Y-68.58
X92.71Y-66.04
X92.71Y-67.246
X93.599Y-49.53
X93.726Y-50.8
X93.98Y-96.52
X95.25Y-86.36
X95.25Y-88.9
X95.504Y-94.996
X96.52Y-80.645
X96.52Y-83.82
X97.028Y-49.784
X97.028Y-50.8
X100.076Y-50.8
X100.203Y-49.53
X100.33Y-74.93
X102.993Y-89.582
X103.632Y-49.53
X103.632Y-50.8
X106.68Y-50.8
X106.807Y-49.53
X110.236Y-49.784
X110.236Y-51.054
X113.284Y-51.054
X113.411Y-49.53
X116.332Y-81.343
X130.048Y-99.822
X131.445Y-95.735
T2
X46.736Y-84.328
X46.736Y-86.868
X52.07Y-59.4
X52.07Y-63.5
X52.07Y-67.6
X125.73Y-59.4
X125.73Y-63.5
X125.73Y-67.6
T3
X77.47Y-78.74
X77.47Y-81.28
X77.47Y-83.82
X77.47Y-86.36
X77.47Y-88.9
X77.47Y-91.44
X77.47Y-93.98
X77.47Y-96.52
X100.33Y-78.74
X100.33Y-81.28
X100.33Y-83.82
X100.33Y-86.36
X100.33Y-88.9
X100.33Y-91.44
X100.33Y-93.98
X100.33Y-96.52
T4
X44.259Y-45.865
X54.292Y-45.865
X123.888Y-45.783
X133.921Y-45.783
T5
X44.178Y-50.8
X46.777Y-50.8
X49.276Y-45.801
X51.775Y-50.8
X54.374Y-50.8
X123.807Y-50.719
X126.406Y-50.719
X128.905Y-45.72
X131.404Y-50.719
X134.003Y-50.719
T6
X50.8Y-76.073
T4
X42.01Y-58.42G85X41.81Y-58.42
G05
X42.01Y-68.58G85X41.81Y-68.58
G05
X44.45Y-75.173G85X44.45Y-76.973
G05
X57.15Y-75.173G85X57.15Y-76.973
G05
X135.79Y-58.42G85X135.99Y-58.42
G05
X135.79Y-68.58G85X135.99Y-68.58
G05
T0
M30
