G04 #@! TF.FileFunction,Soldermask,Bot*
%FSLAX46Y46*%
G04 Gerber Fmt 4.6, Leading zero omitted, Abs format (unit mm)*
G04 Created by KiCad (PCBNEW 4.0.7-e0-6372~58~ubuntu16.04.1) date Sat Mar  2 19:42:23 2019*
%MOMM*%
%LPD*%
G01*
G04 APERTURE LIST*
%ADD10C,0.100000*%
%ADD11C,2.400000*%
%ADD12O,2.800000X2.400000*%
%ADD13C,2.200000*%
%ADD14R,3.410000X1.910000*%
%ADD15O,3.410000X1.910000*%
%ADD16R,2.900000X4.900000*%
%ADD17C,8.020000*%
%ADD18C,2.381860*%
%ADD19C,1.600000*%
%ADD20R,1.598880X2.899360*%
%ADD21C,2.540000*%
%ADD22C,7.900000*%
%ADD23O,2.900000X3.900000*%
%ADD24R,1.400000X3.900000*%
G04 APERTURE END LIST*
D10*
D11*
X125730000Y-67600000D03*
X125730000Y-63500000D03*
X125730000Y-59400000D03*
D12*
X135890000Y-68580000D03*
X135890000Y-58420000D03*
D13*
X100330000Y-78740000D03*
X100330000Y-81280000D03*
X100330000Y-83820000D03*
X100330000Y-86360000D03*
X100330000Y-88900000D03*
X100330000Y-91440000D03*
X100330000Y-93980000D03*
X100330000Y-96520000D03*
X77470000Y-96520000D03*
X77470000Y-93980000D03*
X77470000Y-91440000D03*
X77470000Y-88900000D03*
X77470000Y-86360000D03*
X77470000Y-83820000D03*
X77470000Y-81280000D03*
X77470000Y-78740000D03*
D11*
X52070000Y-59400000D03*
X52070000Y-63500000D03*
X52070000Y-67600000D03*
D12*
X41910000Y-58420000D03*
X41910000Y-68580000D03*
D14*
X46736000Y-86868000D03*
D15*
X46736000Y-84328000D03*
D16*
X44450000Y-76073000D03*
X57150000Y-76073000D03*
D17*
X50800000Y-76073000D03*
D18*
X44178220Y-50800000D03*
X46776640Y-50800000D03*
X49276000Y-45801280D03*
X54373780Y-50800000D03*
X51775360Y-50800000D03*
D19*
X44259500Y-45864780D03*
X54292500Y-45864780D03*
D18*
X123807220Y-50718720D03*
X126405640Y-50718720D03*
X128905000Y-45720000D03*
X134002780Y-50718720D03*
X131404360Y-50718720D03*
D19*
X123888500Y-45783500D03*
X133921500Y-45783500D03*
D20*
X135890000Y-83375500D03*
X132080000Y-83375500D03*
X128270000Y-83375500D03*
X132080000Y-90995500D03*
X135890000Y-90995500D03*
X128270000Y-90995500D03*
X135890000Y-72580500D03*
X132080000Y-72580500D03*
X128270000Y-72580500D03*
X132080000Y-80200500D03*
X135890000Y-80200500D03*
X128270000Y-80200500D03*
D21*
X62310000Y-88740000D03*
X67230000Y-88740000D03*
X72310000Y-88740000D03*
D22*
X67310000Y-76200000D03*
D23*
X62404000Y-91788000D03*
X67230000Y-91788000D03*
X72310000Y-91788000D03*
D24*
X62404000Y-90264000D03*
X67230000Y-90264000D03*
X72310000Y-90518000D03*
D21*
X105490000Y-88740000D03*
X110410000Y-88740000D03*
X115490000Y-88740000D03*
D22*
X110490000Y-76200000D03*
D23*
X105584000Y-91788000D03*
X110410000Y-91788000D03*
X115490000Y-91788000D03*
D24*
X105584000Y-90264000D03*
X110410000Y-90264000D03*
X115490000Y-90518000D03*
M02*
